<mxfile host="app.diagrams.net" modified="2024-01-31T15:24:08.482Z" agent="Mozilla/5.0 (Windows NT 10.0; Win64; x64) AppleWebKit/537.36 (KHTML, like Gecko) Chrome/120.0.0.0 Safari/537.36" etag="BJtqKnU2mrsWYOFFyc__" version="23.0.2" type="github">
  <diagram name="Page-1" id="8Us4WCK9ZZ0-0T4fawTz">
    <mxGraphModel dx="1444" dy="835" grid="1" gridSize="10" guides="1" tooltips="1" connect="1" arrows="1" fold="1" page="1" pageScale="1" pageWidth="850" pageHeight="1100" math="0" shadow="0">
      <root>
        <mxCell id="0" />
        <mxCell id="1" parent="0" />
        <mxCell id="4HTuvO_Nm95UCKi2w5Rm-1" value="Start" style="ellipse;whiteSpace=wrap;html=1;fillColor=#d5e8d4;strokeColor=#82b366;" vertex="1" parent="1">
          <mxGeometry x="120" y="30" width="120" height="80" as="geometry" />
        </mxCell>
        <mxCell id="4HTuvO_Nm95UCKi2w5Rm-3" value="&lt;i&gt;Degrees F &lt;/i&gt;is 89" style="rounded=0;whiteSpace=wrap;html=1;" vertex="1" parent="1">
          <mxGeometry x="280" y="40" width="120" height="60" as="geometry" />
        </mxCell>
        <mxCell id="4HTuvO_Nm95UCKi2w5Rm-4" value="&lt;i&gt;Conv. Factor &lt;/i&gt;is 5/9" style="rounded=0;whiteSpace=wrap;html=1;" vertex="1" parent="1">
          <mxGeometry x="440" y="40" width="120" height="60" as="geometry" />
        </mxCell>
        <mxCell id="4HTuvO_Nm95UCKi2w5Rm-5" value="&lt;i&gt;Freezing Offset&lt;/i&gt;&amp;nbsp;is 32" style="rounded=0;whiteSpace=wrap;html=1;" vertex="1" parent="1">
          <mxGeometry x="600" y="40" width="120" height="60" as="geometry" />
        </mxCell>
        <mxCell id="4HTuvO_Nm95UCKi2w5Rm-7" value="Set &lt;i&gt;Degrees C &lt;/i&gt;to &lt;i&gt;Degrees F * Conv. Factor &lt;/i&gt;(31)" style="rounded=0;whiteSpace=wrap;html=1;" vertex="1" parent="1">
          <mxGeometry x="440" y="160" width="120" height="60" as="geometry" />
        </mxCell>
        <mxCell id="4HTuvO_Nm95UCKi2w5Rm-8" value="Subtracts &lt;i&gt;Freezing Offset &lt;/i&gt;from &lt;i&gt;Degrees F &lt;/i&gt;(57)" style="rounded=0;whiteSpace=wrap;html=1;" vertex="1" parent="1">
          <mxGeometry x="280" y="160" width="120" height="60" as="geometry" />
        </mxCell>
        <mxCell id="4HTuvO_Nm95UCKi2w5Rm-9" value="Stop" style="ellipse;whiteSpace=wrap;html=1;fillColor=#f8cecc;strokeColor=#b85450;" vertex="1" parent="1">
          <mxGeometry x="600" y="150" width="120" height="80" as="geometry" />
        </mxCell>
        <mxCell id="4HTuvO_Nm95UCKi2w5Rm-10" value="" style="curved=1;endArrow=classic;html=1;rounded=0;" edge="1" parent="1">
          <mxGeometry width="50" height="50" relative="1" as="geometry">
            <mxPoint x="730" y="70" as="sourcePoint" />
            <mxPoint x="270" y="190" as="targetPoint" />
            <Array as="points">
              <mxPoint x="780" y="160" />
              <mxPoint x="200" y="120" />
            </Array>
          </mxGeometry>
        </mxCell>
        <mxCell id="4HTuvO_Nm95UCKi2w5Rm-11" value="" style="endArrow=classic;html=1;rounded=0;" edge="1" parent="1">
          <mxGeometry width="50" height="50" relative="1" as="geometry">
            <mxPoint x="410" y="70" as="sourcePoint" />
            <mxPoint x="430" y="70" as="targetPoint" />
          </mxGeometry>
        </mxCell>
        <mxCell id="4HTuvO_Nm95UCKi2w5Rm-12" value="" style="endArrow=classic;html=1;rounded=0;" edge="1" parent="1">
          <mxGeometry width="50" height="50" relative="1" as="geometry">
            <mxPoint x="570" y="69.73" as="sourcePoint" />
            <mxPoint x="590" y="69.73" as="targetPoint" />
          </mxGeometry>
        </mxCell>
        <mxCell id="4HTuvO_Nm95UCKi2w5Rm-13" value="" style="endArrow=classic;html=1;rounded=0;" edge="1" parent="1">
          <mxGeometry width="50" height="50" relative="1" as="geometry">
            <mxPoint x="410" y="189.73000000000002" as="sourcePoint" />
            <mxPoint x="430" y="189.73000000000002" as="targetPoint" />
          </mxGeometry>
        </mxCell>
        <mxCell id="4HTuvO_Nm95UCKi2w5Rm-14" value="" style="endArrow=classic;html=1;rounded=0;" edge="1" parent="1">
          <mxGeometry width="50" height="50" relative="1" as="geometry">
            <mxPoint x="250" y="69.73000000000002" as="sourcePoint" />
            <mxPoint x="270" y="69.73000000000002" as="targetPoint" />
          </mxGeometry>
        </mxCell>
        <mxCell id="4HTuvO_Nm95UCKi2w5Rm-15" value="" style="endArrow=classic;html=1;rounded=0;" edge="1" parent="1">
          <mxGeometry width="50" height="50" relative="1" as="geometry">
            <mxPoint x="570" y="189.73000000000002" as="sourcePoint" />
            <mxPoint x="590" y="189.73000000000002" as="targetPoint" />
          </mxGeometry>
        </mxCell>
      </root>
    </mxGraphModel>
  </diagram>
</mxfile>
